{"asset":{"generator":"3D Builder","version":"2.0"},"scene":0,"scenes":[{"nodes":[0]}],"nodes":[{"mesh":0,"matrix":[1,0,0,0,0,-1.1920928955078125E-7,-0.99999988079071045,0,0,0.99999988079071045,-1.1920928955078125E-7,0,-1.5959099531173706,1.3017714195484587E-7,1.0920050144195557,1]}],"meshes":[{"primitives":[{"attributes":{"POSITION":0,"COLOR_0":1},"mode":4,"indices":2}]}],"accessors":[{"bufferView":0,"byteOffset":0,"count":291617,"componentType":5126,"type":"VEC3","min":[1.149042010307312,0.43812409043312073,1.0506015613140525E-14],"max":[2.0427777767181396,1.7458863258361816,1.7787629365921021]},{"bufferView":1,"byteOffset":0,"count":291617,"componentType":5121,"type":"VEC4","normalized":true},{"bufferView":2,"byteOffset":0,"count":1773414,"componentType":5125,"type":"SCALAR"}],"bufferViews":[{"buffer":0,"byteOffset":0,"byteLength":3499404,"byteStride":12,"target":34962},{"buffer":0,"byteOffset":3499404,"byteLength":1166468,"byteStride":4,"target":34962},{"buffer":0,"byteOffset":4665872,"byteLength":7093656,"target":34963}],"buffers":[{"byteLength":11759528,"uri":"Tipula.bin"}]}